<svg xmlns="http://www.w3.org/2000/svg" width="18" height="18" viewBox="0 0 18 18">
  <defs>
    <linearGradient id="eb66b11e-5257-49f4-8f3e-c784c783c3f5" x1="101.766" y1="585.505" x2="96.942" y2="590.329" gradientTransform="translate(-481.194 -332.237) rotate(-45)" gradientUnits="userSpaceOnUse">
      <stop offset="0" stop-color="#5ea0ef" />
      <stop offset="0.997" stop-color="#0078d4" />
    </linearGradient>
    <linearGradient id="b42b17ce-3a1c-4001-b366-8986fbbf4f44" x1="-1358.197" y1="306.711" x2="-1353.374" y2="301.888" gradientTransform="translate(-730.293 1178.628) rotate(135)" gradientUnits="userSpaceOnUse">
      <stop offset="0" stop-color="#50e6ff" />
      <stop offset="0.997" stop-color="#32bedd" />
    </linearGradient>
  </defs>
  <g id="ee446153-2f3b-4164-a5c1-c0fa4c71117f">
    <path d="M15.861-.052h1.324a0,0,0,0,1,0,0V2.588a.245.245,0,0,1-.245.245h-.835a.245.245,0,0,1-.245-.245V-.052a0,0,0,0,1,0,0Z" transform="translate(27.223 14.057) rotate(-135)" fill="#32bedd" />
    <path d="M.8,15.194H2.128a0,0,0,0,1,0,0V17.8a.243.243,0,0,1-.243.243H1.047A.243.243,0,0,1,.8,17.8V15.194A0,0,0,0,1,.8,15.194Z" transform="translate(12.182 3.831) rotate(45)" fill="#0078d4" />
    <path d="M2.292,11.263a3.15,3.15,0,0,0,4.455,4.455l1.444-1.445L3.737,9.819Z" fill="url(#eb66b11e-5257-49f4-8f3e-c784c783c3f5)" />
    <path d="M6.749,7.771h.124a.474.474,0,0,1,.474.474V10.8a0,0,0,0,1,0,0H6.276a0,0,0,0,1,0,0V8.244a.474.474,0,0,1,.474-.474Z" transform="translate(8.562 -2.096) rotate(45)" fill="#c3f1ff" />
    <path d="M8.622,9.644h.124a.474.474,0,0,1,.474.474v2.558a0,0,0,0,1,0,0H8.149a0,0,0,0,1,0,0V10.117a.474.474,0,0,1,.474-.474Z" transform="translate(10.435 -2.872) rotate(45)" fill="#c3f1ff" />
    <rect x="2.681" y="10.834" width="7.515" height="1.398" rx="0.237" transform="translate(10.04 -1.175) rotate(45)" fill="#5ea0ef" />
    <path d="M15.708,6.737a3.15,3.15,0,0,0-4.455-4.455L9.809,3.727l4.454,4.454Z" fill="url(#b42b17ce-3a1c-4001-b366-8986fbbf4f44)" />
    <path d="M11.127,7.2h.124a.474.474,0,0,1,.474.474v2.558a0,0,0,0,1,0,0H10.653a0,0,0,0,1,0,0V7.671A.474.474,0,0,1,11.127,7.2Z" transform="translate(12.939 22.786) rotate(-135)" fill="#c3f1ff" />
    <path d="M9.254,5.325h.124a.474.474,0,0,1,.474.474V8.356a0,0,0,0,1,0,0H8.78a0,0,0,0,1,0,0V5.8a.474.474,0,0,1,.474-.474Z" transform="translate(11.066 18.265) rotate(-135)" fill="#c3f1ff" />
    <rect x="7.804" y="5.769" width="7.515" height="1.398" rx="0.237" transform="translate(15.164 19.216) rotate(-135)" fill="#50e6ff" />
  </g>
</svg>