<svg width="1247" height="916" xmlns="http://www.w3.org/2000/svg" xmlns:xlink="http://www.w3.org/1999/xlink" overflow="hidden"><defs><clipPath id="clip0"><rect x="-1587" y="323" width="1247" height="916"/></clipPath></defs><g clip-path="url(#clip0)" transform="translate(1587 -323)"><path d="M-1281.7 980.249-1374.17 980.249-1374.17 951.223C-1383 962.308-1391.92 970.385-1400.95 975.458-1416.73 984.288-1434.68 988.701-1454.79 988.701-1487.3 988.701-1516.24 977.523-1541.61 955.169-1571.87 928.494-1587 893.175-1587 849.216-1587 804.504-1571.5 768.81-1540.49 742.135-1515.87 720.908-1487.58 710.291-1455.63 710.291-1437.03 710.291-1419.55 714.237-1403.2 722.128-1393.81 726.638-1384.13 734.058-1374.17 744.39L-1374.17 557-1281.7 557-1281.7 980.249ZM-1371.35 849.498C-1371.35 832.965-1377.17 818.922-1388.82 807.37-1400.48 795.815-1414.57 790.041-1431.11 790.041-1449.53 790.041-1464.66 796.99-1476.49 810.893-1486.08 822.163-1490.87 835.031-1490.87 849.498-1490.87 863.964-1486.08 876.832-1476.49 888.103-1464.84 902.005-1449.71 908.955-1431.11 908.955-1414.38 908.955-1400.24 903.225-1388.68 891.766-1377.13 880.307-1371.35 866.219-1371.35 849.498ZM-934.914 980.249-1027.37 980.249-1027.37 951.223C-1036.21 962.308-1045.14 970.385-1054.16 975.458-1069.95 984.288-1087.89 988.701-1108 988.701-1140.51 988.701-1169.45 977.523-1194.83 955.169-1225.08 928.494-1240.21 893.175-1240.21 849.216-1240.21 804.504-1224.71 768.81-1193.7 742.135-1169.08 720.908-1140.8 710.291-1108.85 710.291-1090.24 710.291-1072.76 714.237-1056.41 722.128-1047.01 726.638-1037.34 734.058-1027.37 744.39L-1027.37 718.746-934.914 718.746-934.914 980.249ZM-1024.56 849.498C-1024.56 832.965-1030.38 818.922-1042.04 807.37-1053.69 795.815-1067.78 790.041-1084.32 790.041-1102.74 790.041-1117.87 796.99-1129.71 810.893-1139.29 822.163-1144.08 835.031-1144.08 849.498-1144.08 863.964-1139.29 876.832-1129.71 888.103-1118.05 902.005-1102.93 908.955-1084.32 908.955-1067.59 908.955-1053.45 903.225-1041.89 891.766-1030.33 880.307-1024.56 866.219-1024.56 849.498ZM-577.694 849.78C-577.694 894.492-593.198 930.185-624.208 956.86-648.827 978.087-677.111 988.701-709.061 988.701-727.666 988.701-745.143 984.758-761.492 976.867-770.889 972.357-780.568 964.937-790.529 954.605L-790.529 1111-882.994 1111-882.994 718.746-790.529 718.746-790.529 747.772C-782.26 736.877-773.334 728.796-763.748 723.537-747.962 714.708-730.014 710.291-709.907 710.291-677.393 710.291-648.452 721.472-623.081 743.826-592.823 770.501-577.694 805.82-577.694 849.78ZM-673.821 849.498C-673.821 834.657-678.521 821.788-687.918 810.893-699.756 796.99-714.981 790.041-733.586 790.041-750.311 790.041-764.453 795.77-776.013 807.229-787.569 818.688-793.349 832.777-793.349 849.498-793.349 866.03-787.521 880.073-775.872 891.625-764.219 903.177-750.125 908.955-733.586 908.955-714.981 908.955-699.852 902.005-688.2 888.103-678.614 876.832-673.821 863.964-673.821 849.498ZM-340 804.129C-352.969 797.929-366.124 794.832-379.469 794.832-409.912 794.832-429.645 807.229-438.667 832.027-442.05 841.042-443.742 853.161-443.742 868.377L-443.742 980.249-536.203 980.249-536.203 718.746-443.742 718.746-443.742 761.578C-433.967 746.363-423.445 735.371-412.168 728.61-396.946 719.592-378.905 715.082-358.044 715.082-353.158 715.082-347.141 715.364-340 715.928L-340 804.129Z" fill="#0D2192" fill-rule="evenodd"/><path d="M-883.988 982-791.008 982-783 1200.74-837.498 1239-892 1200.74Z" fill="#0D2192" fill-rule="evenodd"/><path d="M-745.873 323C-742.077 323-739 323-739 323L-739 571C-739 571-742.077 571-745.873 571L-1085.13 571C-1088.92 571-1092 571-1092 571L-1092 323C-1092 323-1088.92 323-1085.13 323Z" fill="#0D2192" fill-rule="evenodd"/><path d="M-1092 323-962 323-962 571-1092 571Z" fill="#FFFFFF" fill-rule="evenodd" fill-opacity="0.0784314"/><path d="M-644.8 555C-637.731 555-632 555-632 555L-632 615C-632 615-637.731 615-644.8 615L-1191.2 615C-1198.27 615-1204 615-1204 615L-1204 555C-1204 555-1198.27 555-1191.2 555Z" fill="#0D2192" fill-rule="evenodd"/><path d="M-1204 555-1027 555-1027 629-1204 629Z" fill="#FFFFFF" fill-rule="evenodd" fill-opacity="0.0784314"/></g></svg>