<svg xmlns="http://www.w3.org/2000/svg" width="18" height="18" viewBox="0 0 18 18">
  <defs>
    <linearGradient id="f1df5170-0e62-4486-b4e9-b09a0912a553" x1="-601.4876" y1="-223.506" x2="-601.4876" y2="-219.7834" gradientTransform="matrix(1, 0, 0, -1, 617.1263, -205.7579)" gradientUnits="userSpaceOnUse">
      <stop offset="0.0012" stop-color="#76bc2d" />
      <stop offset="1" stop-color="#86d633" />
    </linearGradient>
    <linearGradient id="bd1682d9-aa1c-434c-840e-8751d227e904" x1="-614.765" y1="-223.506" x2="-614.765" y2="-219.7834" gradientUnits="userSpaceOnUse">
      <stop offset="0.0012" stop-color="#76bc2d" />
      <stop offset="1" stop-color="#86d633" />
    </linearGradient>
    <linearGradient id="a8277693-1d98-4b6a-869f-8039eb8e842f" x1="-608.0644" y1="-209.7324" x2="-608.0644" y2="-206.0098" gradientUnits="userSpaceOnUse">
      <stop offset="0.0012" stop-color="#76bc2d" />
      <stop offset="1" stop-color="#86d633" />
    </linearGradient>
    <linearGradient id="f16353b2-52a8-4311-a97b-59fd974d459b" x1="-607.9521" y1="-220.1146" x2="-608.2097" y2="-210.8162" gradientTransform="matrix(1, 0, 0, -1, 617.1263, -205.7579)" gradientUnits="userSpaceOnUse">
      <stop offset="0" stop-color="#2064ae" />
      <stop offset="0.8646" stop-color="#2398f2" />
    </linearGradient>
    <linearGradient id="ed5ff270-4ba5-45ac-9b86-02a8f8e27dc1" x1="3.5241" y1="10.3029" x2="14.5999" y2="10.3029" gradientUnits="userSpaceOnUse">
      <stop offset="0.0612" stop-color="#50e6ff" />
      <stop offset="0.291" stop-color="#5ee7ff" />
      <stop offset="0.7205" stop-color="#81e9ff" />
      <stop offset="1" stop-color="#9cebff" />
    </linearGradient>
  </defs>
  <g id="a637665c-6ba9-451c-9bfe-5bde61f4b653">
    <g>
      <path d="M16.011,16.7077a.3857.3857,0,0,1-.2733-.1132l-3.04-3.04a.3864.3864,0,0,1,.5465-.5463l3.04,3.04a.3865.3865,0,0,1-.2732.66Z" fill="#0078d4" />
      <path d="M15.6388,17.7481A1.8613,1.8613,0,1,1,17.5,15.8867,1.8614,1.8614,0,0,1,15.6388,17.7481Z" fill="url(#f1df5170-0e62-4486-b4e9-b09a0912a553)" />
      <path d="M9.062,7.73a.3864.3864,0,0,1-.3863-.3864v-4.3a.3864.3864,0,0,1,.7727,0v4.3A.3864.3864,0,0,1,9.062,7.73Z" fill="#0078d4" />
      <path d="M1.989,16.7077a.3864.3864,0,0,1-.2732-.66l3.04-3.04a.3863.3863,0,0,1,.5464.5463l-3.04,3.04A.3853.3853,0,0,1,1.989,16.7077Z" fill="#0078d4" />
      <path d="M2.3613,17.7481A1.8613,1.8613,0,1,0,.5,15.8867,1.8613,1.8613,0,0,0,2.3613,17.7481Z" fill="url(#bd1682d9-aa1c-434c-840e-8751d227e904)" />
      <path d="M9.0619,3.9745A1.8613,1.8613,0,1,0,7.2007,2.1132,1.8613,1.8613,0,0,0,9.0619,3.9745Z" fill="url(#a8277693-1d98-4b6a-869f-8039eb8e842f)" />
      <path d="M9.0619,15.8408a5.5379,5.5379,0,1,0-5.5378-5.5379A5.5379,5.5379,0,0,0,9.0619,15.8408Z" fill="url(#f16353b2-52a8-4311-a97b-59fd974d459b)" />
      <path d="M9.062,4.765A5.5379,5.5379,0,1,0,14.6,10.3029,5.5379,5.5379,0,0,0,9.062,4.765Zm4.5644,7.2419H12.1989a6.9983,6.9983,0,0,0,.246-1.7035,9.8061,9.8061,0,0,0-.2132-1.859h1.3566a4.8857,4.8857,0,0,1,.0611,3.5625Zm-.372-4.226H12.0607a6.5136,6.5136,0,0,0-.9037-1.9A4.9273,4.9273,0,0,1,13.2544,7.7809ZM9.6179,15.11l-.0769.0634c-.0391.0038-.0785.0061-.1179.009V12.67h1.8654A5.382,5.382,0,0,1,9.6179,15.11Zm-1.12.0536L8.42,15.0982A5.2845,5.2845,0,0,1,6.7678,12.67H8.7611v2.5164C8.6728,15.1813,8.5851,15.1733,8.4981,15.1633ZM8.0574,5.574l.1074-.0812A4.8712,4.8712,0,0,1,8.7484,5.42V7.7809H6.6673A4.7373,4.7373,0,0,1,8.0574,5.574Zm1.7832-.1024.1079.0778A4.6667,4.6667,0,0,1,11.377,7.7809H9.41V5.4227C9.5556,5.433,9.6992,5.4489,9.8406,5.4716ZM8.7611,8.4571V12.02H6.55a6.5516,6.5516,0,0,1-.2755-1.719,7.99,7.99,0,0,1,.2149-1.8435ZM9.41,11.9942v-3.55h2.1449a7.9928,7.9928,0,0,1,.2149,1.8449,6.36,6.36,0,0,1-.2753,1.7049ZM6.8493,5.94a6.3846,6.3846,0,0,0-.866,1.8538H4.8623A4.9274,4.9274,0,0,1,6.8493,5.94ZM4.5356,8.4444H5.8125a8.8027,8.8027,0,0,0-.2,1.8449,6.9956,6.9956,0,0,0,.246,1.7049H4.47a4.8871,4.8871,0,0,1,.066-3.55Zm.245,4.2259H6.0492a7.56,7.56,0,0,0,1.1525,2.1582A4.9233,4.9233,0,0,1,4.7806,12.67Zm6.0248,2.2044a7.4453,7.4453,0,0,0,1.19-2.2044h1.3482A4.9213,4.9213,0,0,1,10.8054,14.8747Z" opacity="0.85" fill="url(#ed5ff270-4ba5-45ac-9b86-02a8f8e27dc1)" />
    </g>
  </g>
</svg>