<?xml version="1.0" encoding="UTF-8"?>
<svg width="480px" height="480px" viewBox="0 0 480 480" version="1.1" xmlns="http://www.w3.org/2000/svg" xmlns:xlink="http://www.w3.org/1999/xlink">
    <!-- Generator: Sketch 51.3 (57544) - http://www.bohemiancoding.com/sketch -->
    <title>logo large</title>
    <desc>Created with Sketch.</desc>
    <defs></defs>
    <g id="logo-large" stroke="none" stroke-width="1" fill="none" fill-rule="evenodd">
        <path d="M147.109839,298.504854 L120.218166,298.504854 L120.218166,290.060213 C117.649233,293.285044 115.05301,295.635309 112.429419,297.111079 C107.838135,299.680011 102.618361,300.964459 96.7699392,300.964459 C87.3140802,300.964459 78.8968522,297.712348 71.5180026,291.208029 C62.7180414,283.446572 58.3181267,273.170995 58.3181267,260.380989 C58.3181267,247.372351 62.827356,236.987459 71.8459499,229.226003 C79.0061668,223.049632 87.2320942,219.961493 96.5239788,219.961493 C101.935135,219.961493 107.018266,221.109297 111.773525,223.404939 C114.506432,224.716735 117.321284,226.875699 120.218166,229.881897 L120.218166,175.36067 L147.109839,175.36067 L147.109839,298.504854 Z M121.038034,260.462976 C121.038034,255.653059 119.343657,251.567424 115.954852,248.205948 C112.566047,244.844472 108.466748,243.16376 103.656831,243.16376 C98.3003328,243.16376 93.9004182,245.186081 90.456955,249.230783 C87.6693897,252.510272 86.2756279,256.254299 86.2756279,260.462976 C86.2756279,264.671653 87.6693897,268.41568 90.456955,271.695169 C93.84576,275.739871 98.2456746,277.762192 103.656831,277.762192 C108.521406,277.762192 112.63437,276.095144 115.995845,272.760997 C119.357321,269.42685 121.038034,265.327551 121.038034,260.462976 Z M247.968187,298.504854 L221.076514,298.504854 L221.076514,290.060213 C218.507581,293.285044 215.911358,295.635309 213.287767,297.111079 C208.696483,299.680011 203.476709,300.964459 197.628287,300.964459 C188.172428,300.964459 179.7552,297.712348 172.376351,291.208029 C163.576389,283.446572 159.176475,273.170995 159.176475,260.380989 C159.176475,247.372351 163.685704,236.987459 172.704298,229.226003 C179.864515,223.049632 188.090442,219.961493 197.382327,219.961493 C202.793483,219.961493 207.876614,221.109297 212.631873,223.404939 C215.36478,224.716735 218.179632,226.875699 221.076514,229.881897 L221.076514,222.421098 L247.968187,222.421098 L247.968187,298.504854 Z M221.896382,260.462976 C221.896382,255.653059 220.202005,251.567424 216.8132,248.205948 C213.424395,244.844472 209.325096,243.16376 204.515179,243.16376 C199.158681,243.16376 194.758766,245.186081 191.315303,249.230783 C188.527738,252.510272 187.133976,256.254299 187.133976,260.462976 C187.133976,264.671653 188.527738,268.41568 191.315303,271.695169 C194.704108,275.739871 199.104023,277.762192 204.515179,277.762192 C209.379754,277.762192 213.492717,276.095144 216.854193,272.760997 C220.215669,269.42685 221.896382,265.327551 221.896382,260.462976 Z M351.860046,260.544963 C351.860046,273.553601 347.350817,283.938493 338.332223,291.699949 C331.172006,297.87632 322.946079,300.964459 313.654194,300.964459 C308.243038,300.964459 303.159907,299.816655 298.404648,297.521013 C295.671741,296.209217 292.856889,294.050253 289.960007,291.044055 L289.960007,336.546733 L263.068334,336.546733 L263.068334,222.421098 L289.960007,222.421098 L289.960007,230.865739 C292.364966,227.695566 294.961188,225.345301 297.748754,223.814873 C302.340038,221.24594 307.559812,219.961493 313.408234,219.961493 C322.864093,219.961493 331.281321,223.213604 338.66017,229.717923 C347.460132,237.47938 351.860046,247.754957 351.860046,260.544963 Z M323.902545,260.462976 C323.902545,256.144983 322.536112,252.400956 319.803205,249.230783 C316.359742,245.186081 311.932498,243.16376 306.521342,243.16376 C301.656767,243.16376 297.543804,244.830808 294.182328,248.164955 C290.820852,251.499102 289.140139,255.598401 289.140139,260.462976 C289.140139,265.272893 290.834516,269.358528 294.223321,272.720004 C297.612126,276.081479 301.711425,277.762192 306.521342,277.762192 C311.932498,277.762192 316.332413,275.739871 319.721218,271.695169 C322.508783,268.41568 323.902545,264.671653 323.902545,260.462976 Z M420.9895,247.2631 C417.218088,245.459381 413.392075,244.557535 409.511347,244.557535 C400.656728,244.557535 394.917709,248.164919 392.294118,255.379794 C391.310271,258.003385 390.818355,261.528782 390.818355,265.956092 L390.818355,298.504854 L363.926682,298.504854 L363.926682,222.421098 L390.818355,222.421098 L390.818355,234.883092 C393.660579,230.455782 396.721389,227.258329 400.000877,225.290636 C404.428187,222.667045 409.67529,221.355269 415.742344,221.355269 C417.163456,221.355269 418.912491,221.437255 420.9895,221.601229 L420.9895,247.2631 Z" id="dapr" fill="#0D2192"></path>
        <polygon id="tie" fill="#0D2192" fill-rule="nonzero" points="262.856535 299.058265 289.932678 299.058265 292.264747 362.629924 276.394607 373.750524 260.524466 362.629924"></polygon>
        <rect id="Rectangle-4" fill="#0D2192" fill-rule="nonzero" x="202.147624" y="107.275182" width="102.722643" height="72.2941444" rx="2"></rect>
        <rect id="Rectangle-4" fill="#FFFFFF" fill-rule="nonzero" opacity="0.0799999982" x="202.147624" y="107.275182" width="37.9976369" height="72.2941444"></rect>
        <rect id="Rectangle-3" fill="#0D2192" fill-rule="nonzero" x="169.708895" y="174.905188" width="166.248488" height="17.3513412" rx="3.72016"></rect>
        <rect id="Rectangle-4" fill="#FFFFFF" fill-rule="nonzero" opacity="0.0799999982" x="169.708895" y="174.905188" width="51.4375478" height="21.3554969"></rect>
    </g>
</svg>