<svg width="500" height="500" viewBox="0 0 500 500" fill="none" xmlns="http://www.w3.org/2000/svg">
<path d="M231.056 433.676H198.593C181.255 433.676 167.143 419.569 167.143 402.227V394.111C167.143 376.773 181.25 362.662 198.593 362.662H239.171C248.681 362.662 256.417 354.926 256.417 345.417V337.301C256.417 327.792 248.681 320.056 239.171 320.056V305.852C256.509 305.852 270.62 319.958 270.62 337.301V345.417C270.62 362.755 256.514 376.866 239.171 376.866H198.593C189.083 376.866 181.347 384.602 181.347 394.111V402.227C181.347 411.736 189.083 419.472 198.593 419.472H231.056C234.977 419.472 238.157 422.653 238.157 426.574C238.157 430.495 234.977 433.676 231.056 433.676Z" fill="black"/>
<path d="M308.435 412.231H287.866V402.227H247.287C238.324 402.227 231.056 409.495 231.056 418.458V434.69C231.056 443.653 238.324 450.921 247.287 450.921H287.866V440.917H308.435C310.676 440.917 312.491 439.102 312.491 436.861V416.292C312.491 414.051 310.676 412.231 308.435 412.231ZM304.375 432.806H287.861V420.347H304.375V432.806Z" fill="black"/>
<path d="M304.375 432.806H287.861V420.347H304.375V432.806Z" fill="white"/>
<path d="M350.727 49.0786H149.273C125.64 49.0786 106.481 68.2371 106.481 91.8703V293.324C106.481 316.957 125.64 336.116 149.273 336.116H350.727C374.36 336.116 393.519 316.957 393.519 293.324V91.8703C393.519 68.2371 374.36 49.0786 350.727 49.0786Z" fill="black"/>
<path d="M327.389 173.68C325.782 173.329 324.042 171.759 323.519 170.204L318.079 157.018C317.352 155.542 317.481 153.199 318.366 151.815L328.671 134.356C329.537 133 329.315 130.954 328.176 129.815L313.556 115.199C312.417 114.06 310.37 113.838 309.014 114.704L291.565 125.009C290.176 125.893 287.838 126.018 286.366 125.292L273.19 119.819C271.634 119.292 270.069 117.542 269.718 115.935L264.681 96.3008C264.333 94.7267 262.731 93.4397 261.12 93.4397H240.407C238.796 93.4397 237.194 94.7267 236.847 96.3008L231.81 115.926C231.458 117.532 229.894 119.273 228.333 119.801L215.144 125.245C213.667 125.972 211.324 125.842 209.94 124.958L192.481 114.648C191.125 113.782 189.079 114.005 187.94 115.143L173.324 129.768C172.185 130.907 171.963 132.954 172.829 134.31L183.134 151.759C184.019 153.148 184.144 155.486 183.417 156.958L177.94 170.13C177.407 171.685 175.662 173.25 174.056 173.602L154.426 178.643C152.852 178.991 151.565 180.592 151.565 182.204V202.917C151.565 204.528 152.852 206.13 154.426 206.477L174.051 211.514C175.657 211.866 177.403 213.43 177.926 214.991L183.37 228.176C184.097 229.653 183.968 231.995 183.083 233.38L172.778 250.838C171.912 252.199 172.134 254.241 173.273 255.38L187.894 269.995C189.032 271.134 191.079 271.356 192.435 270.491L209.884 260.185C211.269 259.301 213.611 259.171 215.083 259.903L228.255 265.375C229.81 265.907 231.375 267.653 231.727 269.259L236.769 288.893C237.116 290.467 238.718 291.755 240.329 291.755H261.042C262.653 291.755 264.255 290.467 264.602 288.893L269.634 269.268C269.986 267.662 271.551 265.917 273.111 265.393L286.301 259.949C287.778 259.222 290.12 259.352 291.505 260.236L308.958 270.542C310.319 271.407 312.361 271.185 313.5 270.046L328.116 255.426C329.255 254.287 329.477 252.241 328.611 250.884L318.306 233.435C317.421 232.046 317.296 229.708 318.023 228.236L323.495 215.06C324.023 213.505 325.773 211.94 327.38 211.588L347.014 206.551C348.588 206.204 349.875 204.602 349.875 202.991V182.278C349.875 180.667 348.588 179.065 347.014 178.717L327.384 173.68H327.389Z" fill="white"/>
<path d="M293.717 181.446C293.694 181.451 293.888 182.784 294.157 184.409C294.157 184.409 295.527 192.775 294.768 198.4C294.013 204.02 292.129 209.529 289.249 214.483C286.374 219.441 282.527 223.812 278.018 227.256C273.504 230.705 268.351 233.228 262.758 234.715C257.166 236.196 251.439 236.562 245.809 235.807C240.184 235.057 234.675 233.168 229.717 230.289C224.758 227.414 220.383 223.562 216.939 219.053C213.49 214.539 210.962 209.381 209.476 203.789C207.995 198.196 207.624 192.465 208.383 186.83C209.133 181.205 211.027 175.687 213.907 170.728C216.786 165.77 220.633 161.39 225.147 157.946C229.666 154.492 234.823 151.969 240.42 150.478C246.018 148.992 251.754 148.627 257.388 149.381C263.018 150.131 268.536 152.025 273.495 154.904C278.458 157.784 282.837 161.636 286.286 166.15C289.74 170.668 292.712 178.631 292.712 178.631C293.286 180.173 293.74 181.437 293.712 181.441L293.717 181.446Z" fill="black"/>
</svg>
