<svg width="500" height="500" viewBox="0 0 500 500" fill="none" xmlns="http://www.w3.org/2000/svg">
<path d="M282.878 85.6859C290.519 84.8307 300.188 89.2178 307.503 91.5394L346.6 104.093L390.103 118.208L410.306 124.783C414.277 126.044 430.902 129.96 431.388 134.689C432.109 141.676 431.834 149.953 431.834 157.075L431.83 198.155V282.103C431.834 295.421 431.856 308.774 431.877 322.094C431.877 323.491 431.64 328.043 430.832 329.066C430.065 330.041 428.368 331.986 427.175 332.495C421.118 335.078 414.568 337.368 408.473 339.827C387.997 347.918 367.463 355.864 346.873 363.661L266.032 395.029L239.83 405.125C235.243 406.898 230.541 408.807 225.908 410.451C222.903 411.516 220.283 411.062 217.308 410.171C212.231 408.018 207.327 406.513 202.177 404.622C192.937 401.153 183.669 397.758 174.374 394.439L112.295 371.982L88.2834 363.283C82.9912 361.415 77.6696 359.803 72.5295 357.518C68.3495 355.66 66.9806 354.142 66.8645 349.271C66.6893 341.921 66.7928 334.535 66.7951 327.18L66.8068 282.942L66.8137 210.018C66.8002 196.66 66.7488 183.283 66.7834 169.926C66.7871 168.491 66.8348 164.608 67.4934 163.444C68.4131 161.818 70.299 160.478 72.0217 159.802C83.1967 155.417 94.7821 151.898 106.08 147.828L197.17 115.659C218.669 108.172 240.155 100.414 261.681 93.0111C268.564 90.6443 276.03 87.5195 282.878 85.6859ZM288.824 198.307L257.982 210.445C253.4 212.206 230.643 220.434 229.107 222.526C228.527 225.786 228.683 233.816 228.673 237.37L228.643 263.302V351.568C228.617 359.07 228.646 366.573 228.731 374.076C228.818 380.023 229.098 387.18 228.7 393.036L231.586 391.874C253.09 383.739 274.525 375.424 295.889 366.93L416.886 320.161C417.542 306.651 417.535 150.114 416.952 148.705L416.143 148.558L288.824 198.307ZM151.544 202.076C151.544 202.078 151.544 202.081 151.544 202.083C151.58 206.09 151.751 211.037 151.613 214.967C154.156 215.554 155.166 215.871 157.398 217.364C157.463 220.66 158.27 228.233 156.712 230.411C154.599 231.497 153.661 230.597 151.616 229.662C151.573 246.727 151.801 264.266 151.561 281.273C153.607 281.567 160.841 283.129 161.346 284.356C162.606 287.422 162.211 302.49 161.753 305.18C161.664 305.724 161.538 306.261 161.376 306.787L160.94 306.968C158.693 305.202 154.296 304.736 151.553 303.129C151.579 315.005 151.783 327.391 151.545 339.227C154.195 339.782 154.825 339.938 157.319 341.194C157.436 343.631 157.874 353.182 156.751 354.864C155.26 355.41 153.771 354.603 152.402 353.965C152.139 353.843 151.878 353.719 151.617 353.593L151.578 369.301C138.36 365.091 152.287 370.389 165.241 374.609L172.702 377.488C178.953 379.289 185.878 382.13 192.169 384.307C199.34 387.064 206.575 389.651 213.868 392.066C213.613 382.437 213.903 371.87 213.916 362.139L213.929 304.165L213.91 250.655C213.906 241.433 213.646 231.129 213.97 222.021C210.449 221.317 204.545 218.99 200.912 217.813L172.568 208.652L164.99 206.239C152.326 201.493 138.329 198.307 151.544 202.083C151.591 202.096 151.638 202.109 151.685 202.123C151.638 202.108 151.591 202.092 151.544 202.076ZM80.8947 344.693C85.1057 345.57 88.4279 347.193 92.3205 348.516C99.9816 351.119 136.544 364.807 144.244 366.416C144.025 361.469 144.328 356.43 144.124 351.684C141.965 350.702 139.786 349.681 137.595 348.776C137.602 346.521 137.628 344.266 137.672 342.012C137.714 340.282 137.598 337.72 138.292 336.229C140.201 334.724 141.889 336.038 144.093 336.746L144.152 313.332C144.16 309.805 144.32 304.141 143.979 300.779C141.905 300.219 133.713 298.272 133.562 296.845C132.968 291.231 133.429 280.43 133.48 274.949C137.26 276.191 140.848 277.104 144.328 279.03C143.807 272.343 144.109 262.152 144.125 255.079C144.145 246.311 143.796 235.597 144.354 227.111C141.091 226.626 140.743 226.252 137.649 224.953C137.845 220.687 136.677 214.045 138.898 211.857C140.84 211.211 142.181 212.082 144.095 212.878C144.119 208.755 144.287 203.679 144.145 199.63C137.595 198.185 103.446 186.033 96.9533 183.934C93.2896 182.749 83.8599 180.309 81.0109 178.653L80.8947 344.693ZM287.428 100.797C286.585 100.548 285.02 100.659 284.114 100.728C280.491 102.422 275.935 103.766 272.103 105.099L252.614 111.925L205.139 128.657L143.534 150.372C133.726 153.93 124.158 157.275 114.283 160.644C107.276 163.034 102.521 165.151 95.2024 167.034C103.768 169.414 114.091 173.317 122.74 176.085L199.095 200.788C204.755 202.596 210.164 204.554 215.9 206.305C217.902 206.868 219.441 207.405 221.385 208.116C231.442 203.596 245.305 198.606 255.752 194.55L318.41 170.1L376.44 147.532C385.66 144.038 393.168 140.413 402.745 137.855L328.093 113.702C314.655 109.303 301.003 104.807 287.428 100.797Z" fill="black"/>
<path d="M287.428 100.797C286.585 100.548 285.02 100.659 284.114 100.728C280.491 102.422 275.935 103.766 272.103 105.099L252.614 111.925L205.139 128.657L143.534 150.372C133.726 153.93 124.158 157.275 114.283 160.644C107.276 163.034 102.521 165.151 95.2024 167.034C103.768 169.414 114.091 173.317 122.74 176.085L199.095 200.788C204.755 202.596 210.164 204.554 215.9 206.305C217.902 206.868 219.441 207.405 221.385 208.116C231.442 203.596 245.305 198.606 255.752 194.55L318.41 170.1L376.44 147.532C385.66 144.038 393.168 140.413 402.745 137.855L328.093 113.702C314.655 109.303 301.003 104.807 287.428 100.797Z" fill="white"/>
<path d="M151.544 202.083C151.544 202.081 151.544 202.078 151.544 202.076C151.591 202.092 151.638 202.108 151.685 202.123C151.638 202.109 151.591 202.096 151.544 202.083C151.58 206.09 151.751 211.037 151.613 214.967C154.156 215.554 155.166 215.871 157.398 217.364C157.463 220.66 158.27 228.233 156.712 230.411C154.599 231.497 153.661 230.597 151.616 229.662C151.573 246.727 151.801 264.266 151.561 281.273C153.607 281.567 160.841 283.129 161.346 284.356C162.606 287.422 162.211 302.49 161.753 305.18C161.664 305.724 161.538 306.261 161.376 306.787L160.94 306.968C158.693 305.202 154.296 304.736 151.553 303.129C151.579 315.005 151.783 327.391 151.545 339.227C154.195 339.782 154.825 339.938 157.319 341.194C157.436 343.631 157.874 353.182 156.751 354.864C155.26 355.41 153.771 354.603 152.402 353.965C152.139 353.843 151.878 353.719 151.617 353.593L151.578 369.301C138.36 365.091 152.287 370.389 165.241 374.609L172.702 377.488C178.953 379.289 185.878 382.13 192.169 384.307C199.34 387.064 206.575 389.651 213.868 392.066C213.613 382.437 213.903 371.87 213.916 362.139L213.929 304.165L213.91 250.655C213.906 241.433 213.646 231.129 213.97 222.021C210.449 221.317 204.545 218.99 200.912 217.813L172.568 208.652L164.99 206.239C152.326 201.493 138.329 198.307 151.544 202.083Z" fill="white"/>
<path d="M80.8947 344.693C85.1057 345.57 88.4279 347.193 92.3205 348.516C99.9816 351.119 136.544 364.807 144.244 366.416C144.025 361.469 144.328 356.43 144.124 351.684C141.965 350.702 139.786 349.681 137.595 348.776C137.602 346.521 137.628 344.266 137.672 342.012C137.714 340.282 137.598 337.72 138.292 336.229C140.201 334.724 141.889 336.038 144.093 336.746L144.152 313.332C144.16 309.805 144.32 304.141 143.979 300.779C141.905 300.219 133.713 298.272 133.562 296.845C132.968 291.231 133.429 280.43 133.48 274.949C137.26 276.191 140.848 277.104 144.328 279.03C143.807 272.343 144.109 262.152 144.125 255.079C144.145 246.311 143.796 235.597 144.354 227.111C141.091 226.626 140.743 226.252 137.649 224.953C137.845 220.687 136.677 214.045 138.898 211.857C140.84 211.211 142.181 212.082 144.095 212.878C144.119 208.755 144.287 203.679 144.145 199.63C137.595 198.185 103.446 186.033 96.9533 183.934C93.2896 182.749 83.8599 180.309 81.0109 178.653L80.8947 344.693Z" fill="white"/>
<path d="M288.824 198.307L257.982 210.445C253.4 212.206 230.643 220.434 229.107 222.526C228.527 225.786 228.683 233.816 228.673 237.37L228.643 263.302V351.568C228.617 359.07 228.646 366.573 228.731 374.076C228.818 380.023 229.098 387.18 228.7 393.036L231.586 391.874C253.09 383.739 274.525 375.424 295.889 366.93L416.886 320.161C417.542 306.651 417.535 150.114 416.952 148.705L416.143 148.558L288.824 198.307Z" fill="white"/>
<path d="M338.731 194.457C338.969 194.256 338.914 194.344 339.343 194.308C339.881 195.835 339.633 220.873 339.599 223.846C339.159 261.93 340.225 300.281 339.502 338.332C335.295 338.987 332.303 341.52 327.782 342.22L327.444 342.201C326.569 340.931 327 323.048 327.002 320.132L326.992 277.762C326.982 251.868 326.424 223.859 327.113 198.186C330.202 197.54 334.982 195.403 338.731 194.457Z" fill="black"/>
<path d="M392.225 175.385L392.548 175.448C393.341 176.447 393.017 199.122 393.018 202.276L393.027 251.315C393.028 273.127 393.626 298.096 392.877 319.623C388.815 322.039 384.876 322.383 380.94 324.393C380.736 324.321 380.567 324.026 380.385 323.803C380.684 312.289 380.454 299.646 380.458 288.069L380.475 221.289L380.455 195.661C380.452 191.86 380.27 184.174 380.811 180.613C382.266 178.824 389.048 177.169 392.225 175.385Z" fill="black"/>
<path d="M285.161 213.832L285.959 213.879C286.878 215.634 286.525 305.41 286.531 314.379L286.549 342.421C286.551 345.63 286.74 354.097 286.259 356.901C284.381 359.256 278.744 360.243 275.438 362.162L275.299 362.245L274.411 361.962C273.627 360.622 273.941 321.541 273.94 316.44L273.904 218.012C276.064 217.428 283.197 214.781 285.161 213.832Z" fill="black"/>
</svg>
