<svg width="500" height="500" viewBox="0 0 500 500" fill="none" xmlns="http://www.w3.org/2000/svg">
<path d="M216.691 67.2861C229.832 66.4307 276.49 66.6433 288.154 67.6074L288.153 67.6084C316.238 69.9023 340.472 73.8781 359.693 79.2305C378.872 84.5708 393.216 91.3219 401.372 99.2656C404.752 102.541 406.869 105.075 408.034 108.269C409.188 111.431 409.359 115.108 409.199 120.541C409.036 127.489 404.645 190.27 400.141 252.358C395.636 314.452 391.003 376.059 390.356 380.537V380.54C388.907 390.415 382.591 399.099 371.957 406.453C361.332 413.801 346.303 419.892 327.182 424.597C299.973 431.286 267.194 434.034 235.684 433.06C204.183 432.085 173.848 427.388 151.548 419.124V419.123C130.619 411.427 117.564 402.228 112.025 390.7L111.458 389.518C110.917 388.374 110.456 387.317 110.058 386.074C109.526 384.415 109.118 382.464 108.733 379.536C107.969 373.709 107.274 363.805 105.946 344.234L103.101 303.101C102.037 287.764 100.946 272.026 100.095 259.568C98.3928 234.652 95.7331 195.566 94.3496 172.77L92.2617 140.768C91.6643 131.625 91.2131 124.71 91.0527 122.195C90.736 117.968 90.6122 115.445 90.959 113.29C91.3132 111.089 92.1478 109.33 93.5254 106.625L93.5303 106.617L93.5342 106.609C98.7794 96.6667 110.915 89.0839 132.216 81.834C150.761 75.5027 188.645 68.9946 216.691 67.2861ZM104.84 138.273C104.92 139.511 105.037 141.303 105.188 143.583C105.491 148.143 105.926 154.651 106.457 162.563C107.519 178.388 108.966 199.827 110.502 222.524C113.574 267.919 117.004 318.344 118.44 338.95V338.952C119.824 359.146 120.621 370.136 121.335 376.519C122.047 382.88 122.663 384.471 123.573 385.979L124 386.641C128.533 393.449 136.827 399.435 149.358 404.575C162.278 409.875 179.565 414.222 201.54 417.676L202.387 417.802C211.437 419.086 229.673 419.737 248.104 419.737C267.125 419.737 286.161 419.043 295.313 417.674H295.315C313.19 415.019 328.539 411.493 340.987 407.237C353.452 402.977 362.933 398.011 369.142 392.521L369.146 392.518C371.322 390.608 372.824 389.269 373.986 387.66C375.124 386.086 375.973 384.195 376.678 381.166C378.112 375.005 378.878 364.519 380.426 343.312C381.915 322.651 384.363 290.377 385.745 271.639V271.632H385.746C387.235 252.893 389.362 223.93 390.532 207.213C391.703 190.479 393.405 167.707 394.149 156.63V156.619C394.575 151.033 394.921 145.956 395.133 142.252C395.235 140.474 395.303 139.02 395.338 137.98C394.625 138.373 393.737 138.91 392.802 139.534L392.803 139.535C390.353 141.207 384.616 144.017 379.935 146.04L379.924 146.044C346.224 160.256 291.413 166.564 238.797 165.538C212.466 165.025 186.63 162.674 164.196 158.537C141.789 154.406 122.671 148.474 109.846 140.744C107.381 139.256 105.809 138.322 104.809 137.783C104.818 137.935 104.829 138.099 104.84 138.273ZM291.14 80.8555C264.295 78.6249 238.616 78.6229 210.485 80.748L210.486 80.749C178.428 83.2462 150.62 88.7696 131.383 95.7217C121.752 99.2022 114.356 103.01 109.648 106.913C104.916 110.837 103.185 114.592 104.043 118.065L104.164 118.484C104.848 120.591 106.699 122.925 109.803 125.376C113.085 127.967 117.626 130.578 123.236 133.089C134.1 137.952 148.822 142.378 165.773 145.592L167.421 145.899L167.425 145.9C190.749 150.252 207.595 151.845 237.544 152.482C287.579 153.546 331.366 148.756 362.676 138.803L362.68 138.801C371.746 135.952 379.89 132.239 385.955 128.432C388.989 126.527 391.473 124.617 393.289 122.801C395.124 120.965 396.18 119.321 396.525 117.961C397.384 114.567 395.707 110.885 391.055 107.019C386.43 103.175 379.147 99.4139 369.636 95.96C351.231 89.2766 324.807 83.8597 294.122 81.1123L291.14 80.8555Z" fill="black"/>
<path d="M104.84 138.273C104.92 139.511 105.037 141.303 105.188 143.583C105.491 148.143 105.926 154.651 106.457 162.563C107.519 178.388 108.966 199.827 110.502 222.524C113.574 267.919 117.004 318.344 118.44 338.95V338.952C119.824 359.146 120.621 370.136 121.335 376.519C122.047 382.88 122.663 384.471 123.573 385.979L124 386.641C128.533 393.449 136.827 399.435 149.358 404.575C162.278 409.875 179.565 414.222 201.54 417.676L202.387 417.802C211.437 419.086 229.673 419.737 248.104 419.737C267.125 419.737 286.161 419.043 295.313 417.674H295.315C313.19 415.019 328.539 411.493 340.987 407.237C353.452 402.977 362.933 398.011 369.142 392.521L369.146 392.518C371.322 390.608 372.824 389.269 373.986 387.66C375.124 386.086 375.973 384.195 376.678 381.166C378.112 375.005 378.878 364.519 380.426 343.312C381.915 322.651 384.363 290.377 385.745 271.639V271.632H385.746C387.235 252.893 389.362 223.93 390.532 207.213C391.703 190.479 393.405 167.707 394.149 156.63V156.619C394.575 151.033 394.921 145.956 395.133 142.252C395.235 140.474 395.303 139.02 395.338 137.98C394.625 138.373 393.737 138.91 392.802 139.534L392.803 139.535C390.353 141.207 384.616 144.017 379.935 146.04L379.924 146.044C346.224 160.256 291.413 166.564 238.797 165.538C212.466 165.025 186.63 162.674 164.196 158.537C141.789 154.406 122.671 148.474 109.846 140.744C107.381 139.256 105.809 138.322 104.809 137.783C104.818 137.935 104.829 138.099 104.84 138.273Z" fill="white"/>
<path d="M291.14 80.8555C264.295 78.6249 238.616 78.6229 210.485 80.748L210.486 80.749C178.428 83.2462 150.62 88.7696 131.383 95.7217C121.752 99.2022 114.356 103.01 109.648 106.913C104.916 110.837 103.185 114.592 104.043 118.065L104.164 118.484C104.848 120.591 106.699 122.925 109.803 125.376C113.085 127.967 117.626 130.578 123.236 133.089C134.1 137.952 148.822 142.378 165.773 145.592L167.421 145.899L167.425 145.9C190.749 150.252 207.595 151.845 237.544 152.482C287.579 153.546 331.366 148.756 362.676 138.803L362.68 138.801C371.746 135.952 379.89 132.239 385.955 128.432C388.989 126.527 391.473 124.617 393.289 122.801C395.124 120.965 396.18 119.321 396.525 117.961C397.384 114.567 395.707 110.885 391.055 107.019C386.43 103.175 379.147 99.4139 369.636 95.96C351.231 89.2766 324.807 83.8597 294.122 81.1123L291.14 80.8555Z" fill="white"/>
<path d="M216.691 67.2861C229.832 66.4307 276.49 66.6433 288.154 67.6074L288.153 67.6084C316.238 69.9023 340.472 73.8781 359.693 79.2305C378.872 84.5708 393.216 91.3219 401.372 99.2656C404.752 102.541 406.869 105.075 408.034 108.269C409.188 111.431 409.359 115.108 409.199 120.541C409.036 127.489 404.645 190.27 400.141 252.358C395.636 314.452 391.003 376.059 390.356 380.537V380.54C388.907 390.415 382.591 399.099 371.957 406.453C361.332 413.801 346.303 419.892 327.182 424.597C299.973 431.286 267.194 434.034 235.684 433.06C204.183 432.085 173.848 427.388 151.548 419.124V419.123C130.619 411.427 117.564 402.228 112.025 390.7L111.458 389.518C110.917 388.374 110.456 387.317 110.058 386.074C109.526 384.415 109.118 382.464 108.733 379.536C107.969 373.709 107.274 363.805 105.946 344.234L103.101 303.101C102.037 287.764 100.946 272.026 100.095 259.568C98.3928 234.652 95.7331 195.566 94.3496 172.77L92.2617 140.768C91.6643 131.625 91.2131 124.71 91.0527 122.195C90.736 117.968 90.6122 115.445 90.959 113.29C91.3132 111.089 92.1478 109.33 93.5254 106.625L93.5303 106.617L93.5342 106.609C98.7794 96.6667 110.915 89.0839 132.216 81.834C150.761 75.5027 188.645 68.9946 216.691 67.2861ZM104.84 138.273C104.92 139.511 105.037 141.303 105.188 143.583C105.491 148.143 105.926 154.651 106.457 162.563C107.519 178.388 108.966 199.827 110.502 222.524C113.574 267.919 117.004 318.344 118.44 338.95V338.952C119.824 359.146 120.621 370.136 121.335 376.519C122.047 382.88 122.663 384.471 123.573 385.979L124 386.641C128.533 393.449 136.827 399.435 149.358 404.575C162.278 409.875 179.565 414.222 201.54 417.676L202.387 417.802C211.437 419.086 229.673 419.737 248.104 419.737C267.125 419.737 286.161 419.043 295.313 417.674H295.315C313.19 415.019 328.539 411.493 340.987 407.237C353.452 402.977 362.933 398.011 369.142 392.521L369.146 392.518C371.322 390.608 372.824 389.269 373.986 387.66C375.124 386.086 375.973 384.195 376.678 381.166C378.112 375.005 378.878 364.519 380.426 343.312C381.915 322.651 384.363 290.377 385.745 271.639V271.632H385.746C387.235 252.893 389.362 223.93 390.532 207.213C391.703 190.479 393.405 167.707 394.149 156.63V156.619C394.575 151.033 394.921 145.956 395.133 142.252C395.235 140.474 395.303 139.02 395.338 137.98C394.625 138.373 393.737 138.91 392.802 139.534L392.803 139.535C390.353 141.207 384.616 144.017 379.935 146.04L379.924 146.044C346.224 160.256 291.413 166.564 238.797 165.538C212.466 165.025 186.63 162.674 164.196 158.537C141.789 154.406 122.671 148.474 109.846 140.744C107.381 139.256 105.809 138.322 104.809 137.783C104.818 137.935 104.829 138.099 104.84 138.273ZM291.14 80.8555C264.295 78.6249 238.616 78.6229 210.485 80.748L210.486 80.749C178.428 83.2462 150.62 88.7696 131.383 95.7217C121.752 99.2022 114.356 103.01 109.648 106.913C104.916 110.837 103.185 114.592 104.043 118.065L104.164 118.484C104.848 120.591 106.699 122.925 109.803 125.376C113.085 127.967 117.626 130.578 123.236 133.089C134.1 137.952 148.822 142.378 165.773 145.592L167.421 145.899L167.425 145.9C190.749 150.252 207.595 151.845 237.544 152.482C287.579 153.546 331.366 148.756 362.676 138.803L362.68 138.801C371.746 135.952 379.89 132.239 385.955 128.432C388.989 126.527 391.473 124.617 393.289 122.801C395.124 120.965 396.18 119.321 396.525 117.961C397.384 114.567 395.707 110.885 391.055 107.019C386.43 103.175 379.147 99.4139 369.636 95.96C351.231 89.2766 324.807 83.8597 294.122 81.1123L291.14 80.8555Z" stroke="black" stroke-width="2.5"/>
<path d="M104.84 138.273C104.92 139.511 105.037 141.303 105.188 143.583C105.491 148.143 105.926 154.651 106.457 162.563C107.519 178.388 108.966 199.827 110.502 222.524C113.574 267.919 117.004 318.344 118.44 338.95V338.952C119.824 359.146 120.621 370.136 121.335 376.519C122.047 382.88 122.663 384.471 123.573 385.979L124 386.641C128.533 393.449 136.827 399.435 149.358 404.575C162.278 409.875 179.565 414.222 201.54 417.676L202.387 417.802C211.437 419.086 229.673 419.737 248.104 419.737C267.125 419.737 286.161 419.043 295.313 417.674H295.315C313.19 415.019 328.539 411.493 340.987 407.237C353.452 402.977 362.933 398.011 369.142 392.521L369.146 392.518C371.322 390.608 372.824 389.269 373.986 387.66C375.124 386.086 375.973 384.195 376.678 381.166C378.112 375.005 378.878 364.519 380.426 343.312C381.915 322.651 384.363 290.377 385.745 271.639V271.632H385.746C387.235 252.893 389.362 223.93 390.532 207.213C391.703 190.479 393.405 167.707 394.149 156.63V156.619C394.575 151.033 394.921 145.956 395.133 142.252C395.235 140.474 395.303 139.02 395.338 137.98C394.625 138.373 393.737 138.91 392.802 139.534L392.803 139.535C390.353 141.207 384.616 144.017 379.935 146.04L379.924 146.044C346.224 160.256 291.413 166.564 238.797 165.538C212.466 165.025 186.63 162.674 164.196 158.537C141.789 154.406 122.671 148.474 109.846 140.744C107.381 139.256 105.809 138.322 104.809 137.783C104.818 137.935 104.829 138.099 104.84 138.273Z" stroke="black" stroke-width="2.5"/>
<path d="M291.14 80.8555C264.295 78.6249 238.616 78.6229 210.485 80.748L210.486 80.749C178.428 83.2462 150.62 88.7696 131.383 95.7217C121.752 99.2022 114.356 103.01 109.648 106.913C104.916 110.837 103.185 114.592 104.043 118.065L104.164 118.484C104.848 120.591 106.699 122.925 109.803 125.376C113.085 127.967 117.626 130.578 123.236 133.089C134.1 137.952 148.822 142.378 165.773 145.592L167.421 145.899L167.425 145.9C190.749 150.252 207.595 151.845 237.544 152.482C287.579 153.546 331.366 148.756 362.676 138.803L362.68 138.801C371.746 135.952 379.89 132.239 385.955 128.432C388.989 126.527 391.473 124.617 393.289 122.801C395.124 120.965 396.18 119.321 396.525 117.961C397.384 114.567 395.707 110.885 391.055 107.019C386.43 103.175 379.147 99.4139 369.636 95.96C351.231 89.2766 324.807 83.8597 294.122 81.1123L291.14 80.8555Z" stroke="black" stroke-width="2.5"/>
<path d="M239.274 192.956C256.106 191.253 271.33 195.468 283.421 205.169L283.995 205.635L283.998 205.638C292.974 213.084 300.739 224.904 303.212 234.897L304.114 238.501L309.906 239.467L309.913 239.468C329.23 242.806 344.657 258.082 348.27 277.277L348.433 278.194V278.196C352.353 301.821 334.844 325.511 310.336 330.228L310.321 330.231L310.305 330.233C307.191 330.752 297.398 331.25 288.4 331.25C280.88 331.25 276.648 331.202 274.076 330.917C272.778 330.774 271.809 330.562 271.015 330.219C270.191 329.863 269.631 329.399 269.116 328.884C268.515 328.283 268 327.739 267.627 327.22C267.245 326.688 266.948 326.097 266.892 325.401C266.836 324.708 267.031 324.077 267.312 323.494C267.587 322.922 267.992 322.295 268.465 321.598C268.859 321.008 269.327 320.408 270.191 319.957C270.995 319.539 272.045 319.3 273.508 319.133C276.436 318.799 281.619 318.7 291.281 318.55H291.282C301.323 318.4 306.309 318.324 309.538 317.934C312.638 317.56 314.037 316.909 316.949 315.478C323.998 312.001 330.493 305.407 333.77 298.466L333.772 298.46C334.846 296.214 335.447 294.603 335.794 292.656C336.148 290.675 336.25 288.298 336.25 284.5C336.25 280.599 336.147 278.256 335.772 276.297C335.403 274.372 334.76 272.763 333.578 270.35V270.349C328.182 259.366 317.289 252.221 304.723 251.448C302.459 251.323 300.636 251.19 299.176 250.92C297.706 250.649 296.483 250.22 295.493 249.424C294.492 248.62 293.855 247.543 293.363 246.219C292.879 244.916 292.5 243.273 292.077 241.257L292.075 241.245C287.602 218.881 265.089 202.407 242.523 204.644L242.522 204.643C220.835 206.892 204.108 221.619 199.924 241.952V241.953C199.571 243.667 199.19 245.319 198.843 246.591C198.671 247.224 198.501 247.786 198.34 248.221C198.261 248.437 198.174 248.648 198.081 248.831C198.022 248.946 197.878 249.217 197.627 249.435C197.429 249.612 197.198 249.724 197.101 249.771C196.938 249.849 196.744 249.929 196.535 250.009C196.112 250.171 195.559 250.358 194.92 250.556C193.639 250.953 191.957 251.412 190.178 251.819C158.085 259.266 153.047 300.715 182.35 315.078L182.359 315.082C185.544 316.675 187.206 317.427 189.826 317.881C192.532 318.35 196.252 318.499 203.543 318.75H203.545C207.66 318.901 211.578 319.127 214.562 319.367C216.052 319.486 217.321 319.609 218.269 319.73C218.741 319.79 219.15 319.852 219.473 319.914C219.634 319.946 219.789 319.98 219.928 320.019C220.015 320.043 220.146 320.083 220.283 320.145L220.42 320.214L220.472 320.245L220.521 320.279C221.908 321.258 222.282 323.154 222.185 324.715C222.084 326.34 221.456 328.159 220.183 329.383C219.7 329.866 219.146 330.269 218.358 330.562C217.604 330.842 216.685 331.005 215.496 331.096C213.135 331.278 209.384 331.197 203.063 330.949V330.95C194.655 330.699 188.958 330.223 184.174 328.985C179.352 327.737 175.521 325.732 170.804 322.537V322.538C151.768 309.779 145.304 284.185 155.787 263.632C160.748 253.817 172.122 244.503 182.825 241.207L187.58 239.709L189.197 233.961L189.199 233.953C195.446 212.344 216.285 195.306 239.273 192.956H239.274Z" fill="black" stroke="black" stroke-width="2.5"/>
<path d="M233.516 250.75C233.957 250.75 234.385 250.892 234.744 251.051C235.123 251.218 235.537 251.454 235.979 251.741C236.864 252.316 237.964 253.163 239.286 254.283C241.605 256.247 244.691 259.117 248.646 262.99L250.395 264.712L250.399 264.716C254.16 268.476 257.648 272.115 260.237 274.943C261.531 276.356 262.609 277.576 263.387 278.512C263.774 278.978 264.098 279.388 264.34 279.722C264.46 279.888 264.57 280.049 264.659 280.197C264.717 280.294 264.794 280.428 264.856 280.582L264.913 280.741L264.919 280.763C265.416 282.54 264.686 284.423 263.637 285.76C262.585 287.099 260.934 288.25 259.115 288.25C258.716 288.25 258.332 288.138 258.007 288.008C257.668 287.873 257.31 287.685 256.941 287.463C256.205 287.019 255.336 286.381 254.353 285.583C252.382 283.983 249.849 281.651 246.839 278.691L246.832 278.684L239.666 271.518V304.3C239.666 315.705 239.566 324.843 239.391 331.297C239.303 334.522 239.196 337.087 239.072 338.935C239.011 339.857 238.944 340.615 238.871 341.193C238.835 341.482 238.795 341.741 238.751 341.96C238.711 342.156 238.652 342.404 238.551 342.624L238.525 342.678L238.495 342.729C237.505 344.426 235.612 345.25 233.416 345.25C231.22 345.25 229.326 344.426 228.336 342.729L228.306 342.678L228.28 342.624C228.179 342.404 228.12 342.156 228.08 341.96C228.036 341.741 227.996 341.483 227.96 341.194C227.887 340.616 227.82 339.858 227.759 338.937C227.635 337.09 227.529 334.527 227.441 331.309C227.266 324.868 227.166 315.755 227.166 304.4V271.571L219.89 278.693C217.026 281.507 214.47 283.837 212.452 285.472C211.446 286.287 210.551 286.948 209.804 287.412C209.431 287.644 209.071 287.84 208.736 287.983C208.425 288.116 208.029 288.25 207.615 288.25C205.775 288.25 204.146 287.05 203.127 285.686C202.107 284.32 201.42 282.422 201.912 280.663L201.915 280.652L201.918 280.641C201.984 280.42 202.096 280.224 202.174 280.096C202.264 279.947 202.374 279.786 202.495 279.621C202.738 279.289 203.062 278.884 203.451 278.422C204.231 277.495 205.312 276.287 206.612 274.887C209.215 272.083 212.728 268.47 216.538 264.71L216.541 264.707C221.344 260.004 224.996 256.577 227.657 254.321C228.985 253.196 230.095 252.337 230.995 251.754C231.445 251.462 231.868 251.223 232.259 251.053C232.633 250.89 233.068 250.75 233.516 250.75Z" fill="black" stroke="black" stroke-width="2.5"/>
<path d="M255.312 395.25C254.871 395.25 254.443 395.108 254.084 394.949C253.704 394.782 253.29 394.546 252.848 394.259C251.964 393.684 250.864 392.837 249.542 391.717C247.223 389.753 244.136 386.883 240.181 383.01L238.433 381.288L238.428 381.284C234.668 377.524 231.18 373.885 228.591 371.057C227.297 369.644 226.219 368.424 225.441 367.488C225.053 367.022 224.73 366.612 224.488 366.278C224.368 366.112 224.258 365.951 224.169 365.803C224.111 365.706 224.034 365.572 223.971 365.418L223.915 365.259L223.909 365.237C223.411 363.46 224.142 361.577 225.191 360.24C226.242 358.901 227.894 357.75 229.713 357.75C230.112 357.75 230.496 357.862 230.821 357.992C231.16 358.127 231.518 358.315 231.886 358.537C232.623 358.981 233.492 359.619 234.475 360.417C236.446 362.017 238.979 364.349 241.989 367.309L241.996 367.316L249.162 374.482V341.7C249.162 330.295 249.262 321.157 249.437 314.703C249.525 311.478 249.632 308.913 249.756 307.065C249.817 306.143 249.884 305.385 249.957 304.807C249.993 304.518 250.033 304.259 250.077 304.04C250.117 303.844 250.176 303.596 250.277 303.376L250.302 303.322L250.333 303.271C251.323 301.574 253.216 300.75 255.412 300.75C257.608 300.75 259.502 301.574 260.492 303.271L260.522 303.322L260.548 303.376C260.649 303.596 260.708 303.844 260.748 304.04C260.792 304.259 260.832 304.517 260.868 304.806C260.941 305.384 261.007 306.142 261.069 307.063C261.193 308.91 261.299 311.473 261.386 314.691C261.562 321.132 261.662 330.245 261.662 341.6V374.429L268.938 367.307C271.802 364.493 274.358 362.163 276.376 360.528C277.382 359.713 278.277 359.052 279.024 358.588C279.397 358.356 279.757 358.16 280.092 358.017C280.403 357.884 280.799 357.75 281.213 357.75C283.053 357.75 284.681 358.95 285.701 360.314C286.721 361.68 287.408 363.578 286.916 365.337L286.913 365.348L286.91 365.359C286.844 365.58 286.732 365.776 286.654 365.904C286.564 366.053 286.454 366.214 286.333 366.379C286.09 366.711 285.765 367.116 285.377 367.578C284.597 368.505 283.516 369.713 282.216 371.113C279.613 373.917 276.1 377.53 272.29 381.29L272.287 381.293C267.484 385.996 263.832 389.423 261.171 391.679C259.843 392.804 258.733 393.663 257.833 394.246C257.383 394.538 256.96 394.777 256.569 394.947C256.195 395.11 255.76 395.25 255.312 395.25Z" fill="black" stroke="black" stroke-width="2.5"/>
</svg>
