<svg width="500" height="500" viewBox="0 0 500 500" fill="none" xmlns="http://www.w3.org/2000/svg">
<path d="M118 86H289.471L383 179.429V413H118V86Z" fill="white" stroke="black" stroke-width="12" stroke-linejoin="round"/>
<path d="M301.625 232H156.375C150.645 232 146 234.798 146 238.25V250.75C146 254.202 150.645 257 156.375 257H301.625C307.355 257 312 254.202 312 250.75V238.25C312 234.798 307.355 232 301.625 232Z" fill="black" stroke="black" stroke-width="10"/>
<path d="M322.562 284H176.438C170.673 284 166 286.798 166 290.25V302.75C166 306.202 170.673 309 176.438 309H322.562C328.327 309 333 306.202 333 302.75V290.25C333 286.798 328.327 284 322.562 284Z" fill="black" stroke="black" stroke-width="10"/>
<path d="M343.625 336H198.375C192.645 336 188 338.798 188 342.25V354.75C188 358.202 192.645 361 198.375 361H343.625C349.355 361 354 358.202 354 354.75V342.25C354 338.798 349.355 336 343.625 336Z" fill="black" stroke="black" stroke-width="10"/>
<path d="M289 86V180H383" stroke="black" stroke-width="12" stroke-linejoin="round"/>
</svg>
