<svg width="500" height="500" viewBox="0 0 500 500" fill="none" xmlns="http://www.w3.org/2000/svg">
<path d="M249.733 80.0124C250.607 79.989 251.482 79.9988 252.354 80.0418C276.631 81.2966 296.403 89.9567 312.92 108.087C323.164 119.33 330.627 135.342 332.551 150.422C333.489 157.781 333.222 167.625 333.21 175.239L333.195 189.618C333.195 192.685 333.272 195.861 333.112 198.91C335.272 199.32 337.562 199.161 339.791 199.443C347.025 200.413 353.746 203.704 358.945 208.822C366.238 215.995 368.905 224.687 368.949 234.64L368.932 342.583V373.774C368.955 387.481 370.326 399.086 359.577 409.822C355.01 414.449 349.21 417.67 342.865 419.104C337.668 420.223 332.089 419.954 326.757 419.954L309.775 419.941L248.92 419.943L188.844 419.965L173.367 419.966C167.724 419.98 161.945 420.24 156.415 419.07C150.449 417.773 144.951 414.877 140.511 410.692C134.129 404.846 130.37 396.683 130.081 388.04C129.961 383.75 130.047 379.155 130.05 374.837L130.049 352.393L130.053 282.065L130.048 247.313C130.048 242.114 129.77 232.013 130.552 227.36C131.716 220.682 134.835 214.497 139.514 209.586C145.77 203.046 155.069 198.814 164.181 199.239C164.382 199.248 165.892 199.039 165.9 198.844C166.541 183.362 165.216 167.655 166.703 152.21C170.823 116.118 199.886 86.713 235.696 81.2242C240.365 80.5085 244.998 80.1502 249.733 80.0124ZM236.839 403.576L307.401 403.593L327.18 403.59C334.694 403.574 341.921 404.503 347.664 398.588C353.701 392.367 353.188 384.436 353.19 376.461L353.229 365.394L353.217 273.177L353.204 248.326C353.21 239.182 354.47 227.549 347.449 220.59C345.384 218.516 342.81 217.017 339.985 216.243C336.418 215.259 330.896 215.461 327.072 215.419C321.543 215.345 316.015 215.337 310.487 215.394C294.776 215.558 278.955 215.215 263.306 215.406L193.358 215.469L174.88 215.437C166.748 215.405 157.7 214.381 151.508 220.686C148.902 223.309 147.224 226.709 146.729 230.371C146.414 232.644 146.491 235.331 146.492 237.658L146.513 247.838L146.533 281.104L146.524 350.472C146.52 362.534 146.496 374.587 146.541 386.69C146.572 395.002 152.497 401.689 160.626 403.201C164.018 403.833 167.857 403.595 171.285 403.583L184.696 403.569L236.839 403.576ZM254.881 199.363L291.343 199.292C295.58 199.297 299.601 199.233 303.833 199.133C306.796 199.063 308.807 199.364 311.942 198.999C312.336 196.59 312.17 194.489 312.334 192.112C312.608 188.137 312.473 184.196 312.569 180.226C313.037 160.963 312.799 143.597 300.977 127.199C291.395 113.702 276.796 104.606 260.447 101.947C255.265 101.119 250.159 100.987 244.921 101.269C227.292 102.907 212.444 110.139 200.994 123.659C187.331 139.791 186.201 159.087 186.588 179.207C186.699 185.013 186.359 190.98 186.717 196.815C186.767 197.63 187.003 198.438 187.54 199.06C189.256 199.768 205.762 199.315 208.79 199.319L254.881 199.363Z" fill="black"/>
<path d="M236.839 403.576L307.401 403.593L327.18 403.59C334.694 403.574 341.921 404.503 347.664 398.588C353.701 392.367 353.188 384.436 353.19 376.461L353.229 365.394L353.217 273.177L353.204 248.326C353.21 239.182 354.47 227.549 347.449 220.59C345.384 218.516 342.81 217.017 339.985 216.243C336.418 215.259 330.896 215.461 327.072 215.419C321.543 215.345 316.015 215.337 310.487 215.394C294.776 215.558 278.955 215.215 263.306 215.406L193.358 215.469L174.88 215.437C166.748 215.405 157.7 214.381 151.508 220.686C148.902 223.309 147.224 226.709 146.729 230.371C146.414 232.644 146.491 235.331 146.492 237.658L146.513 247.838L146.533 281.104L146.524 350.472C146.52 362.534 146.496 374.587 146.541 386.69C146.572 395.002 152.497 401.689 160.626 403.201C164.018 403.833 167.857 403.595 171.285 403.583L184.696 403.569L236.839 403.576Z" fill="white"/>
<path d="M254.881 199.363L291.343 199.292C295.58 199.297 299.601 199.233 303.833 199.133C306.796 199.063 308.807 199.364 311.942 198.999C312.336 196.59 312.17 194.489 312.334 192.112C312.608 188.137 312.473 184.196 312.569 180.226C313.037 160.963 312.799 143.597 300.977 127.199C291.395 113.702 276.796 104.606 260.447 101.947C255.265 101.119 250.159 100.987 244.921 101.269C227.292 102.907 212.444 110.139 200.994 123.659C187.331 139.791 186.201 159.087 186.588 179.207C186.699 185.013 186.359 190.98 186.717 196.815C186.767 197.63 187.003 198.438 187.54 199.06C189.256 199.768 205.762 199.315 208.79 199.319L254.881 199.363Z" fill="white"/>
<path d="M248.196 267.098C251.15 266.78 254.729 267.266 257.559 268.143C270.95 272.332 278.21 286.962 273.623 300.319C271.766 305.726 267.645 311.268 262.542 313.932C262.817 315.832 264.09 320.555 264.578 322.57C266.244 329.376 267.957 336.172 269.717 342.954C270.37 345.474 271.072 347.973 271.679 350.506C272.299 352.964 272.455 355.331 270.556 357.29C268.431 359.486 264.481 358.907 261.578 358.898L251.939 358.868C248.2 358.876 233.932 359.337 231.301 358.486C230.142 358.111 229.046 357.015 228.496 355.942C228.047 355.087 227.854 354.118 227.941 353.153C228.106 351.408 228.856 348.689 229.302 346.902L231.781 337.074C233.581 329.897 235.474 320.903 237.643 313.929C224.155 307.145 220.951 287.726 230.498 276.376C235.37 270.584 240.793 267.881 248.196 267.098Z" fill="black"/>
</svg>
