<?xml version="1.0" encoding="UTF-8"?>
<svg width="206px" height="206px" viewBox="0 0 206 206" version="1.1" xmlns="http://www.w3.org/2000/svg" xmlns:xlink="http://www.w3.org/1999/xlink">
    <!-- Generator: Sketch 51.3 (57544) - http://www.bohemiancoding.com/sketch -->
    <title>white on dark</title>
    <desc>Created with Sketch.</desc>
    <defs></defs>
    <g id="white-on-dark" stroke="none" stroke-width="1" fill="none" fill-rule="evenodd">
        <path d="M63.08125,128 L51.55,128 L51.55,124.378906 C50.448432,125.761726 49.3351619,126.769528 48.2101562,127.402344 C46.2413964,128.503912 44.0031375,129.054688 41.4953125,129.054688 C37.4406047,129.054688 33.8312658,127.66017 30.6671875,124.871094 C26.8937311,121.542952 25.0070312,117.136746 25.0070312,111.652344 C25.0070312,106.074191 26.9406057,101.62111 30.8078125,98.2929688 C33.8781404,95.644518 37.4054488,94.3203125 41.3898437,94.3203125 C43.7101679,94.3203125 45.8898336,94.8124951 47.9289062,95.796875 C49.1007871,96.3593778 50.3078063,97.2851498 51.55,98.5742188 L51.55,75.1953125 L63.08125,75.1953125 L63.08125,128 Z M51.9015625,111.6875 C51.9015625,109.62499 51.1750073,107.873054 49.721875,106.431641 C48.2687427,104.990227 46.5109478,104.269531 44.4484375,104.269531 C42.151551,104.269531 40.2648511,105.13671 38.7882812,106.871094 C37.5929628,108.277351 36.9953125,109.882803 36.9953125,111.6875 C36.9953125,113.492197 37.5929628,115.097649 38.7882812,116.503906 C40.2414135,118.23829 42.1281134,119.105469 44.4484375,119.105469 C46.5343854,119.105469 48.2980397,118.390632 49.7394531,116.960938 C51.1808666,115.531243 51.9015625,113.773448 51.9015625,111.6875 Z M106.329687,128 L94.7984375,128 L94.7984375,124.378906 C93.6968695,125.761726 92.5835994,126.769528 91.4585937,127.402344 C89.4898339,128.503912 87.251575,129.054688 84.74375,129.054688 C80.6890422,129.054688 77.0797033,127.66017 73.915625,124.871094 C70.1421686,121.542952 68.2554687,117.136746 68.2554687,111.652344 C68.2554687,106.074191 70.1890432,101.62111 74.05625,98.2929688 C77.1265779,95.644518 80.6538863,94.3203125 84.6382812,94.3203125 C86.9586054,94.3203125 89.1382711,94.8124951 91.1773437,95.796875 C92.3492246,96.3593778 93.5562438,97.2851498 94.7984375,98.5742188 L94.7984375,95.375 L106.329687,95.375 L106.329687,128 Z M95.15,111.6875 C95.15,109.62499 94.4234448,107.873054 92.9703125,106.431641 C91.5171802,104.990227 89.7593853,104.269531 87.696875,104.269531 C85.3999885,104.269531 83.5132886,105.13671 82.0367187,106.871094 C80.8414003,108.277351 80.24375,109.882803 80.24375,111.6875 C80.24375,113.492197 80.8414003,115.097649 82.0367187,116.503906 C83.489851,118.23829 85.3765509,119.105469 87.696875,119.105469 C89.7828229,119.105469 91.5464772,118.390632 92.9878906,116.960938 C94.4293041,115.531243 95.15,113.773448 95.15,111.6875 Z M150.878906,111.722656 C150.878906,117.300809 148.945332,121.75389 145.078125,125.082031 C142.007797,127.730482 138.480489,129.054688 134.496094,129.054688 C132.17577,129.054688 129.996104,128.562505 127.957031,127.578125 C126.78515,127.015622 125.578131,126.08985 124.335937,124.800781 L124.335937,144.3125 L112.804687,144.3125 L112.804687,95.375 L124.335937,95.375 L124.335937,98.9960938 C125.367193,97.636712 126.480463,96.6289095 127.675781,95.9726562 C129.644541,94.8710882 131.8828,94.3203125 134.390625,94.3203125 C138.445333,94.3203125 142.054672,95.7148298 145.21875,98.5039062 C148.992206,101.832048 150.878906,106.238254 150.878906,111.722656 Z M138.890625,111.6875 C138.890625,109.835928 138.304693,108.230476 137.132812,106.871094 C135.656243,105.13671 133.757824,104.269531 131.4375,104.269531 C129.351552,104.269531 127.587898,104.984368 126.146484,106.414062 C124.705071,107.843757 123.984375,109.601552 123.984375,111.6875 C123.984375,113.75001 124.71093,115.501946 126.164062,116.943359 C127.617195,118.384773 129.37499,119.105469 131.4375,119.105469 C133.757824,119.105469 135.644524,118.23829 137.097656,116.503906 C138.292975,115.097649 138.890625,113.492197 138.890625,111.6875 Z M180.521875,106.027344 C178.904679,105.253902 177.264071,104.867188 175.6,104.867188 C171.803106,104.867188 169.342193,106.414047 168.217187,109.507812 C167.79531,110.632818 167.584375,112.144522 167.584375,114.042969 L167.584375,128 L156.053125,128 L156.053125,95.375 L167.584375,95.375 L167.584375,100.71875 C168.803131,98.820303 170.115618,97.449223 171.521875,96.6054688 C173.420322,95.4804631 175.670299,94.9179688 178.271875,94.9179688 C178.881253,94.9179688 179.631246,94.9531246 180.521875,95.0234375 L180.521875,106.027344 Z" id="dapr" fill="#FFFFFF"></path>
        <polygon id="tie" fill="#FFFFFF" fill-rule="nonzero" points="112.713867 128.237305 124.324219 128.237305 125.324219 155.49707 118.519043 160.265625 111.713867 155.49707"></polygon>
        <rect id="Rectangle-4" fill="#FFFFFF" fill-rule="nonzero" x="86.6816586" y="46" width="44.0478543" height="31" rx="2"></rect>
        <rect id="Rectangle-4" fill="#000000" fill-rule="nonzero" opacity="0.0799999982" x="86.6816586" y="46" width="16.2935291" height="31"></rect>
        <rect id="Rectangle-3" fill="#FFFFFF" fill-rule="nonzero" x="72.7718099" y="75" width="71.2879747" height="7.44032012" rx="3.72016"></rect>
        <rect id="Rectangle-4" fill="#000000" fill-rule="nonzero" opacity="0.0799999982" x="72.7718099" y="75" width="22.0566132" height="9.15731707"></rect>
    </g>
</svg>