<svg width="500" height="500" viewBox="0 0 500 500" fill="none" xmlns="http://www.w3.org/2000/svg">
<path d="M248.913 101.049C250.792 100.931 252.457 100.978 254.212 101.754C257.828 103.353 261.416 105.156 264.986 106.862L284.416 116.085L346.108 145.439L376.006 159.758C378.03 160.739 380.677 162.109 382.707 162.966C389.771 165.949 388.986 169.392 388.964 175.918L388.96 187.007L388.958 226.05L388.926 291.406L388.921 312.043C388.926 316.037 388.959 320.093 388.851 324.086C388.809 325.627 388.145 327.4 387.187 328.606C386.484 329.482 385.616 330.21 384.631 330.749C376.472 335.244 366.888 339.936 358.527 344.196L313.888 366.97L272.375 388.402C268.335 390.519 264.284 392.612 260.221 394.68C257.895 395.871 253.495 398.412 251.038 398.678C249.744 398.804 247.955 398.763 246.793 398.192C244.151 396.889 241.516 395.46 238.905 394.092C234.044 391.578 229.197 389.035 224.365 386.465L181.537 364.231L138.065 342.218L123.182 334.703C119.972 333.082 111.624 329.865 111.241 325.725C110.861 321.606 111.043 316.631 111.047 312.418L111.072 281.069L111.086 206.714L111.074 183.756C111.068 179.367 111.029 174.95 111.12 170.589C111.171 168.131 112.798 165.418 114.965 164.327C117.782 162.909 120.787 161.534 123.638 160.191L138.684 153L203.887 122.058L232.135 108.537L240.323 104.564C242.981 103.277 246.049 101.628 248.913 101.049ZM121.106 322.412C162.558 342.976 203.738 364.084 244.635 385.732L244.895 385.638C245.006 380.26 244.917 374.611 244.916 369.209L244.923 341.845L244.936 273.028C244.938 262.208 244.713 250.574 244.971 239.818C240.162 237.607 234.962 234.89 230.202 232.502L208.842 221.859L154.64 195.166L132.408 184.223L126.025 181.109C124.68 180.445 122.506 179.317 121.111 178.806C121.288 186.01 121.153 193.765 121.139 201.007L121.167 233.449L121.106 322.412ZM331.366 202.308C331.515 211.445 331.366 220.972 331.375 230.156L331.379 239.153C331.378 241.143 331.728 245.203 330.351 246.664C329.684 247.373 326.915 248.711 325.932 249.225C319.12 252.79 312.274 256.292 305.456 259.841C304.94 260.109 303.804 260.449 303.247 260.408C299.543 260.143 300.451 254.522 300.459 251.974L300.476 241.111L300.47 225.612C300.478 223.014 300.413 219.906 300.561 217.354L269.629 232.694L260.072 237.431C258.604 238.158 256.521 239.27 255.047 239.881C255.297 251.163 255.079 263.219 255.08 274.567L255.063 343.63L255.045 371.794C255.039 376.149 255.219 381.745 254.991 386.024C264.243 381.407 273.494 376.379 282.71 371.63L351.827 336.263C360.803 331.692 369.885 326.845 378.88 322.387L378.839 282.901L378.861 218.606C378.869 205.668 379.098 192.025 378.852 179.14C378.773 179.073 378.694 179.007 378.615 178.941L345.317 195.45C342.251 196.991 339.176 198.51 336.087 200.005C334.603 200.733 332.841 201.682 331.366 202.308ZM249.993 111.095C239.523 116.383 228.662 121.155 218.137 126.357C215.766 127.529 213.228 128.679 210.792 129.705C215.025 131.706 219.944 134.552 224.08 136.846L238.48 144.695L298.732 177.429L317.57 187.697C320.532 189.313 324.473 191.615 327.457 193.048C329.147 192.202 330.906 191.292 332.614 190.5L361.137 176.319C365.261 174.271 369.95 171.835 374.076 169.958L282.787 126.428C279.606 124.917 250.922 111.109 249.993 111.095ZM300.343 206.265C287.833 199.504 275.359 192.679 262.919 185.789L211.278 157.725C208.38 156.144 184.343 142.774 183.493 142.718C171.429 148.668 158.997 154.361 146.856 160.186C140.062 163.446 132.95 166.896 126.097 170.004C129.823 171.526 135.169 174.434 138.914 176.257L166.929 189.964C193.213 202.796 219.428 215.766 245.573 228.877C246.994 229.583 248.671 230.472 250.093 231.117C259.531 226.19 269.805 221.323 279.394 216.575L292.954 209.878C295.29 208.724 297.996 207.285 300.343 206.265Z" fill="black"/>
<path d="M300.343 206.265C287.833 199.504 275.359 192.679 262.919 185.789L211.278 157.725C208.38 156.144 184.343 142.774 183.493 142.718C171.429 148.668 158.997 154.361 146.856 160.186C140.062 163.446 132.95 166.896 126.097 170.004C129.823 171.526 135.169 174.434 138.914 176.257L166.929 189.964C193.213 202.796 219.428 215.766 245.573 228.877C246.994 229.583 248.671 230.472 250.093 231.117C259.531 226.19 269.805 221.323 279.394 216.575L292.954 209.878C295.29 208.724 297.996 207.285 300.343 206.265Z" fill="white"/>
<path d="M249.993 111.095C239.523 116.383 228.662 121.155 218.137 126.357C215.766 127.529 213.228 128.679 210.792 129.705C215.025 131.706 219.944 134.552 224.08 136.846L238.48 144.695L298.732 177.429L317.57 187.697C320.532 189.313 324.473 191.615 327.457 193.048C329.147 192.202 330.906 191.292 332.614 190.5L361.137 176.319C365.261 174.271 369.95 171.835 374.076 169.958L282.787 126.428C279.606 124.917 250.922 111.109 249.993 111.095Z" fill="white"/>
<path d="M121.106 322.412C162.558 342.976 203.738 364.084 244.635 385.732L244.895 385.638C245.006 380.26 244.917 374.611 244.916 369.209L244.923 341.845L244.936 273.028C244.938 262.208 244.713 250.574 244.971 239.818C240.162 237.607 234.962 234.89 230.202 232.502L208.842 221.859L154.64 195.166L132.408 184.223L126.025 181.109C124.68 180.445 122.506 179.317 121.111 178.806C121.288 186.01 121.153 193.765 121.139 201.007L121.167 233.449L121.106 322.412Z" fill="white"/>
<path d="M331.366 202.308C331.515 211.445 331.366 220.972 331.375 230.156L331.379 239.153C331.378 241.143 331.728 245.203 330.351 246.664C329.684 247.373 326.915 248.711 325.932 249.225C319.12 252.79 312.274 256.292 305.456 259.841C304.94 260.109 303.804 260.449 303.247 260.408C299.543 260.143 300.451 254.522 300.459 251.974L300.476 241.111L300.47 225.612C300.478 223.014 300.413 219.906 300.561 217.354L269.629 232.694L260.072 237.431C258.604 238.158 256.521 239.27 255.047 239.881C255.297 251.163 255.079 263.219 255.08 274.567L255.063 343.63L255.045 371.794C255.039 376.149 255.219 381.745 254.991 386.024C264.243 381.407 273.494 376.379 282.71 371.63L351.827 336.263C360.803 331.692 369.885 326.845 378.88 322.387L378.839 282.901L378.861 218.606C378.869 205.668 379.098 192.025 378.852 179.14L378.615 178.941L345.317 195.45C342.251 196.991 339.176 198.51 336.087 200.005C334.603 200.733 332.841 201.682 331.366 202.308Z" fill="white"/>
</svg>
