<svg width="500" height="500" viewBox="0 0 500 500" fill="none" xmlns="http://www.w3.org/2000/svg">
<path d="M242.68 40.9317L242.896 40.9216C250.071 40.6522 257.307 40.9598 264.48 41.1756C308.667 42.5055 379.85 51.6792 412.885 82.8205C420.956 90.4295 426.812 99.7004 427.132 111.075C427.334 118.273 427.142 125.527 427.142 132.73V175.22V302.026L427.152 365.18L427.156 383.198C427.156 386.884 427.352 391.633 426.779 395.201C423.547 415.229 401.583 429.243 384.555 436.819C345.351 454.262 300.85 459.297 258.381 460.344C208.69 461.401 126.121 453.382 88.3632 418.635C80.3534 411.266 74.4747 402.119 74.0783 390.973C73.8528 384.63 74.0847 378.219 74.0777 371.868L74.076 330.379L74.1047 208.457L74.086 139.758L74.067 120.079C74.0678 115.699 73.8584 111.202 74.4679 106.859C75.5756 98.9641 79.6472 92.1196 84.9922 86.3478C110.909 58.3608 167.138 47.1428 203.782 43.3052C216.747 41.9475 229.666 41.4291 242.68 40.9317ZM242.221 56.2626C202.57 56.776 159.264 62.6961 122.743 78.6334C109.96 84.2121 89.3629 96.3337 89.4552 111.924C89.5374 125.804 108.377 138.155 119.661 143.336C161.021 162.326 213.292 168.332 258.433 167.241C258.674 167.235 258.914 167.226 259.155 167.214C300.045 166.176 343.005 161.054 380.502 143.9C401.246 134.41 426.19 114.73 402.093 93.1886C393.929 85.8915 384.301 80.8274 374.242 76.588C334.181 60.369 285.164 55.4102 242.221 56.2626ZM408.372 400.614C412.264 394.056 412.003 391.196 412.008 383.761L412.01 372.114C412.003 356.987 411.688 340.746 412.012 325.712L411.859 325.818C409.371 327.546 407.125 329.874 404.571 331.684C390.718 341.506 374.325 348.538 358.032 353.171C301.03 369.377 239.182 370.821 180.85 361.594C157.085 357.738 130.371 350.493 109.163 339.261C104.463 336.771 99.9914 333.938 95.798 330.689C94.7822 329.901 89.989 325.842 89.3648 325.638L89.3799 325.876C89.5737 329.336 89.3276 333.752 89.3664 337.332L89.4084 374.747C89.4127 379.955 88.855 390.42 90.2739 394.851C94.8214 409.047 115.201 419.823 127.99 424.967C174.101 443.418 226.898 446.969 276.092 444.422C312.158 442.553 351.697 436.012 384.279 419.874C392.506 415.798 403.47 408.389 408.372 400.614ZM408.37 306.984C409.534 304.991 411.312 301.56 411.597 299.251C412.278 293.746 412.006 287.252 411.999 281.611L412.008 249.692C412.014 245.084 411.762 237.577 412.105 233.246C404.087 240.235 395.118 246.046 385.468 250.506C340.348 271.87 274.064 276.363 224.484 273.714C183.265 271.512 132.972 263.036 97.9317 239.928C95.5647 238.367 91.5447 234.373 89.3718 233.34C89.5708 247.551 89.4001 262.132 89.3846 276.375L89.3743 288.599C89.3749 291.83 89.1707 297.227 90.0794 300.182C94.6494 315.055 113.49 325.619 127.251 331.157C165.814 346.677 210.953 352.116 252.364 351.919C290.601 351.737 330.493 347.091 366.565 334.298C381.479 328.907 399.213 320.348 408.37 306.984ZM408.539 214.458C412.693 207.698 412.047 202.813 412.02 195.178C412.01 192.702 412.01 190.174 412.006 187.695L412.016 157.096C412.018 152.055 411.863 146.236 412.032 141.264C370.947 178.225 278.566 185.085 225.263 181.815C188.614 179.567 146.822 173.392 113.534 157.135C108.092 154.477 103.053 151.587 98.0801 148.14C96.4019 146.977 90.202 141.895 89.3664 141.492L89.3807 185.632C89.3885 191.221 88.8207 202.988 90.0226 207.973C93.9251 221.747 111.863 231.989 124.014 237.271C162.033 253.794 209.455 259.174 250.599 259.317C292.583 259.46 372.776 251.441 403.346 220.804C405.293 218.876 407.034 216.749 408.539 214.458Z" fill="black"/>
<path d="M242.221 56.2626C202.57 56.776 159.264 62.6961 122.743 78.6334C109.96 84.2121 89.3629 96.3337 89.4552 111.924C89.5374 125.804 108.377 138.155 119.661 143.336C161.021 162.326 213.292 168.332 258.433 167.241C258.674 167.235 258.914 167.226 259.155 167.214C300.045 166.176 343.005 161.054 380.502 143.9C401.246 134.41 426.19 114.73 402.093 93.1886C393.929 85.8915 384.301 80.8274 374.242 76.588C334.181 60.369 285.164 55.4102 242.221 56.2626Z" fill="white"/>
<path d="M408.539 214.458C412.693 207.698 412.047 202.813 412.02 195.178C412.01 192.702 412.01 190.174 412.006 187.695L412.016 157.096C412.018 152.055 411.863 146.236 412.032 141.264C370.947 178.225 278.566 185.085 225.263 181.815C188.614 179.567 146.822 173.392 113.534 157.135C108.092 154.477 103.053 151.587 98.0801 148.14C96.4019 146.977 90.202 141.895 89.3664 141.492L89.3807 185.632C89.3885 191.221 88.8207 202.988 90.0226 207.973C93.9251 221.747 111.863 231.989 124.014 237.271C162.033 253.794 209.455 259.174 250.599 259.317C292.583 259.46 372.776 251.441 403.346 220.804C405.293 218.876 407.034 216.749 408.539 214.458Z" fill="white"/>
<path d="M408.37 306.984C409.534 304.991 411.312 301.56 411.597 299.251C412.278 293.746 412.006 287.252 411.999 281.611L412.008 249.692C412.014 245.084 411.762 237.577 412.105 233.246C404.087 240.235 395.118 246.046 385.468 250.506C340.348 271.87 274.064 276.363 224.484 273.714C183.265 271.512 132.972 263.036 97.9317 239.928C95.5647 238.367 91.5447 234.373 89.3718 233.34C89.5708 247.551 89.4001 262.132 89.3846 276.375L89.3743 288.599C89.3749 291.83 89.1707 297.227 90.0794 300.182C94.6494 315.055 113.49 325.619 127.251 331.157C165.814 346.677 210.953 352.116 252.364 351.919C290.601 351.737 330.493 347.091 366.565 334.298C381.479 328.907 399.213 320.348 408.37 306.984Z" fill="white"/>
<path d="M408.372 400.614C412.264 394.056 412.003 391.196 412.008 383.761L412.01 372.114C412.003 356.987 411.688 340.746 412.012 325.712L411.859 325.818C409.371 327.546 407.125 329.874 404.571 331.684C390.718 341.506 374.325 348.538 358.032 353.171C301.03 369.377 239.182 370.821 180.85 361.594C157.085 357.738 130.371 350.493 109.163 339.261C104.463 336.771 99.9914 333.938 95.798 330.689C94.7822 329.901 89.989 325.842 89.3648 325.638L89.3799 325.876C89.5737 329.336 89.3276 333.752 89.3664 337.332L89.4084 374.747C89.4127 379.955 88.855 390.42 90.2739 394.851C94.8214 409.047 115.201 419.823 127.99 424.967C174.101 443.418 226.898 446.969 276.092 444.422C312.158 442.553 351.697 436.012 384.279 419.874C392.506 415.798 403.47 408.389 408.372 400.614Z" fill="white"/>
</svg>
